<svg width="40" height="40" viewBox="0 0 40 40" fill="none" xmlns="http://www.w3.org/2000/svg">
<circle cx="20" cy="20" r="20" fill="#F9E0BB"/>
<path d="M20 19.9363C21.2446 19.9363 22.2593 17.6638 22.2593 14.8986C22.2593 12.165 21.25 10 20 10C18.7607 10 17.7407 12.1972 17.7407 14.9199C17.7457 17.6747 18.7604 19.9363 20 19.9363ZM13.975 20.1713C15.0521 20.1713 15.9361 18.1878 15.9361 15.755C15.9361 13.3763 15.0629 11.4572 13.975 11.4572C12.8975 11.4572 12.0082 13.4077 12.0136 15.7762C12.0189 18.1988 12.8975 20.1713 13.975 20.1713ZM26.0304 20.1713C27.1025 20.1713 27.9864 18.1988 27.9864 15.7762C27.9918 13.4077 27.1025 11.4572 26.0304 11.4572C24.9375 11.4572 24.0639 13.3755 24.0639 15.755C24.0639 18.1878 24.9479 20.1713 26.0304 20.1713ZM20 18.3174C19.2364 18.3174 18.5825 16.817 18.5825 14.9199C18.5825 13.055 19.2261 11.619 20.0004 11.619C20.7793 11.619 21.4175 13.0337 21.4175 14.8979C21.4175 16.7957 20.7739 18.3174 20 18.3174ZM13.975 18.575C13.3368 18.575 12.7929 17.3205 12.7929 15.7769C12.7929 14.2663 13.3314 13.0542 13.975 13.0542C14.6339 13.0542 15.1621 14.2443 15.1621 15.7557C15.1621 17.3205 14.6182 18.575 13.975 18.575ZM26.0304 18.575C25.3818 18.575 24.8379 17.3205 24.8379 15.7557C24.8379 14.2443 25.3661 13.055 26.0304 13.055C26.6736 13.055 27.2071 14.2663 27.2071 15.7776C27.2071 17.3205 26.6682 18.575 26.0304 18.575ZM11.0668 30H15.1725C14.9214 29.7109 14.7279 29.0676 14.7646 28.414H10.9361C10.8314 28.414 10.7793 28.3283 10.7793 28.1249C10.7793 25.4666 12.2593 22.9796 13.9696 22.9796C14.6286 22.9796 15.2196 23.3016 15.7268 23.912C15.895 23.4749 16.0942 23.092 16.3179 22.7761C15.6432 21.8649 14.8325 21.3935 13.9696 21.3935C11.7782 21.3935 10 24.652 10 28.2215C10 29.4108 10.3557 30 11.0668 30ZM28.9382 30C29.6443 30 30 29.4108 30 28.2215C30 24.652 28.2214 21.3935 26.0304 21.3935C25.1675 21.3935 24.3618 21.8649 23.6821 22.7768C23.9175 23.1084 24.1107 23.4839 24.2786 23.912C24.7804 23.3016 25.3764 22.9796 26.0304 22.9796C27.7407 22.9796 29.2207 25.4666 29.2207 28.1249C29.2207 28.3283 29.1736 28.414 29.0689 28.414H25.2404C25.2718 29.0676 25.0836 29.7109 24.8325 30H28.9382ZM16.7154 30H23.2846C24.1525 30 24.5661 29.4642 24.5661 28.2852C24.5661 25.4768 22.8346 21.4148 20 21.4148C17.16 21.4148 15.4286 25.4768 15.4286 28.2852C15.4286 29.4642 15.8421 30 16.7154 30ZM16.4643 28.3825C16.3286 28.3825 16.2711 28.3071 16.2711 28.0824C16.2711 26.3236 17.5996 23.0337 20 23.0337C22.3954 23.0337 23.7239 26.3236 23.7239 28.0817C23.7239 28.3071 23.6714 28.3818 23.5357 28.3818L16.4643 28.3825Z" fill="#E96613"/>
</svg>
