<svg width="45" height="45" viewBox="0 0 45 45" fill="none" xmlns="http://www.w3.org/2000/svg">
<circle cx="22.5" cy="22.5" r="22.5" fill="#F4CB95"/>
<path d="M16.75 23.375L21.0625 27.6875L28.25 17.6249M11 22.2997C11 33.3498 20.9446 37.2311 22.3376 37.7212C22.4459 37.7596 22.5541 37.7596 22.6624 37.7212C24.0582 37.2469 34 33.4634 34 22.3011V12.3119C34.0003 12.1835 33.9576 12.0586 33.8786 11.9572C33.7997 11.8559 33.6891 11.7839 33.5644 11.7527L22.6394 9.01716C22.5479 8.99428 22.4521 8.99428 22.3606 9.01716L11.4356 11.7527C11.3109 11.7839 11.2003 11.8559 11.1214 11.9572C11.0424 12.0586 10.9997 12.1835 11 12.3119V22.2997Z" stroke="#E96613" stroke-width="2.15625" stroke-linecap="round" stroke-linejoin="round"/>
</svg>
