<svg width="40" height="40" viewBox="0 0 40 40" fill="none" xmlns="http://www.w3.org/2000/svg">
<circle cx="20" cy="20" r="20" fill="#F9E0BB"/>
<path d="M16 20L19 23L24 16M12 19.252C12 26.939 18.918 29.639 19.887 29.98C19.9623 30.0067 20.0377 30.0067 20.113 29.98C21.084 29.65 28 27.018 28 19.253V12.3039C28.0002 12.2146 27.9705 12.1277 27.9156 12.0572C27.8606 11.9867 27.7837 11.9366 27.697 11.9149L20.097 10.0119C20.0333 9.99602 19.9667 9.99602 19.903 10.0119L12.303 11.9149C12.2163 11.9366 12.1394 11.9867 12.0844 12.0572C12.0295 12.1277 11.9998 12.2146 12 12.3039V19.252Z" stroke="#E96613" stroke-width="1.5" stroke-linecap="round" stroke-linejoin="round"/>
</svg>
